<svg width="23" height="22" viewBox="0 0 23 22" fill="none" xmlns="http://www.w3.org/2000/svg">
<g clip-path="url(#clip0_52_341)">
<path d="M11.5012 0.16089C5.46362 0.158448 0.573486 5.04614 0.573486 11.0789C0.573486 15.8494 3.63257 19.9045 7.89282 21.3938C8.46655 21.5378 8.37866 21.1301 8.37866 20.8518V18.9597C5.06567 19.3479 4.9314 17.1555 4.70923 16.7893C4.26001 16.0227 3.198 15.8274 3.51538 15.4612C4.26978 15.073 5.03882 15.5588 5.92993 16.8748C6.57446 17.8293 7.83179 17.6682 8.46899 17.5095C8.60815 16.9358 8.90601 16.4231 9.31616 16.0251C5.88354 15.4099 4.45288 13.3152 4.45288 10.825C4.45288 9.61646 4.85083 8.50562 5.63208 7.60962C5.13403 6.13257 5.67847 4.86792 5.75171 4.67993C7.17017 4.55298 8.64478 5.69556 8.75952 5.78589C9.56519 5.5686 10.4856 5.45386 11.5159 5.45386C12.551 5.45386 13.4739 5.57349 14.2869 5.79321C14.5627 5.58325 15.9299 4.60181 17.2483 4.72144C17.3191 4.90942 17.8513 6.14478 17.3826 7.6023C18.1736 8.50073 18.5764 9.62134 18.5764 10.8323C18.5764 13.3274 17.136 15.4246 13.6936 16.03C13.9885 16.32 14.2226 16.6658 14.3823 17.0473C14.542 17.4287 14.6241 17.8382 14.6238 18.2517V20.9983C14.6433 21.218 14.6238 21.4353 14.99 21.4353C19.3137 19.9778 22.4265 15.8933 22.4265 11.0813C22.4265 5.04614 17.5339 0.16089 11.5012 0.16089Z" fill="white"/>
</g>
<defs>
<clipPath id="clip0_52_341">
<rect width="23" height="21.2744" fill="white" transform="translate(0 0.160889)"/>
</clipPath>
</defs>
</svg>
