<svg width="46" height="46" viewBox="0 0 46 46" fill="none" xmlns="http://www.w3.org/2000/svg">
<path d="M21.9191 10.9333C25.0255 10.9333 27.559 13.4234 27.559 16.489V22.4827H19.9203C19.3729 22.4827 18.94 22.9081 18.94 23.4462C18.94 23.9717 19.3729 24.4097 19.9203 24.4097H27.559V30.3908C27.559 33.4564 25.0255 35.959 21.8936 35.959H15.6936C12.5745 35.959 10.041 33.4689 10.041 30.4033V16.5016C10.041 13.4234 12.5872 10.9333 15.7063 10.9333H21.9191ZM30.7375 19.1295C31.1129 18.7416 31.726 18.7416 32.1014 19.117L35.7551 22.7582C35.9428 22.9459 36.0429 23.1837 36.0429 23.4464C36.0429 23.6967 35.9428 23.9469 35.7551 24.1221L32.1014 27.7633C31.9137 27.951 31.6634 28.0511 31.4257 28.0511C31.1754 28.0511 30.9252 27.951 30.7375 27.7633C30.3621 27.388 30.3621 26.7748 30.7375 26.3994L32.7395 24.4099H27.5592V22.4829H32.7395L30.7375 20.4934C30.3621 20.118 30.3621 19.5049 30.7375 19.1295Z" fill="white"/>
</svg>
