<svg width="46" height="47" viewBox="0 0 46 47" fill="none" xmlns="http://www.w3.org/2000/svg">
<path d="M27.798 10.9927C31.6632 10.9927 33.8154 13.22 33.8154 17.0364V29.9621C33.8154 33.8411 31.6632 36.0183 27.798 36.0183H17.311C13.5071 36.0183 11.2923 33.8411 11.2923 29.9621V17.0364C11.2923 13.22 13.5071 10.9927 17.311 10.9927H27.798ZM17.6488 28.1853C17.2734 28.1478 16.9106 28.3229 16.7104 28.6483C16.5102 28.9611 16.5102 29.374 16.7104 29.6993C16.9106 30.0122 17.2734 30.1999 17.6488 30.1498H27.4589C27.9581 30.0998 28.3348 29.6731 28.3348 29.1738C28.3348 28.6608 27.9581 28.2353 27.4589 28.1853H17.6488ZM27.4589 22.4782H17.6488C17.1095 22.4782 16.6728 22.9174 16.6728 23.4554C16.6728 23.9935 17.1095 24.4314 17.6488 24.4314H27.4589C27.9969 24.4314 28.4349 23.9935 28.4349 23.4554C28.4349 22.9174 27.9969 22.4782 27.4589 22.4782ZM21.3889 16.8111H17.6488V16.8236C17.1095 16.8236 16.6728 17.2616 16.6728 17.7996C16.6728 18.3377 17.1095 18.7756 17.6488 18.7756H21.3889C21.9282 18.7756 22.3662 18.3377 22.3662 17.7859C22.3662 17.2491 21.9282 16.8111 21.3889 16.8111Z" fill="#EFF2F4"/>
</svg>
