<svg width="18" height="22" viewBox="0 0 18 22" fill="none" xmlns="http://www.w3.org/2000/svg">
<path fill-rule="evenodd" clip-rule="evenodd" d="M17.3885 7.3536C16.309 6.00841 14.7945 5.23019 13.3647 5.23019C11.4733 5.23019 10.6741 6.12882 9.3619 6.12882C8.00938 6.12882 6.98093 5.2315 5.34492 5.2315C3.73798 5.2315 2.02947 6.20761 0.9463 7.87581C-0.577931 10.2217 -0.319835 14.6355 2.15171 18.3967C3.03567 19.7417 4.21621 21.2541 5.75982 21.2685C7.1317 21.2811 7.51989 20.3935 9.38127 20.383C11.2429 20.3728 11.595 21.2782 12.9666 21.2654C14.5102 21.2507 15.7557 19.576 16.6391 18.2308C17.2723 17.2673 17.5082 16.7804 18 15.6912C14.4267 14.341 13.8521 9.29193 17.3885 7.3536Z" fill="#FFF8F8"/>
<path fill-rule="evenodd" clip-rule="evenodd" d="M11.9301 3.72735C12.6172 2.84574 13.1391 1.60029 12.9496 0.327606C11.8272 0.405087 10.5142 1.11891 9.74776 2.04999C9.052 2.89495 8.47744 4.148 8.70098 5.36597C9.92629 5.40393 11.1943 4.67178 11.9301 3.72735Z" fill="#FFF8F8"/>
</svg>
