<svg width="61" height="64" viewBox="0 0 61 64" fill="none" xmlns="http://www.w3.org/2000/svg">
<path fill-rule="evenodd" clip-rule="evenodd" d="M59.8115 33.9328C61.0931 29.3829 61.2415 22.5032 60.7144 17.4161C59.3879 4.60437 54.4929 1.16068 41.593 0.238295C36.0761 -0.215638 28.2333 0.104728 22.5145 0.180222C16.4579 0.259588 11.4838 0.938066 7.34809 3.84555C-1.40346 9.99929 0.554565 23.9899 0.557493 34.3626C0.560421 46.4474 -1.60941 59.4411 9.80294 62.4483C14.7087 63.7404 21.9415 63.4133 25.0542 60.2522C28.9019 56.3439 28.5437 51.9362 29.061 45.4428C33.0903 45.4428 37.3499 45.5783 41.346 45.3779C50.1259 44.9385 57.2054 43.1838 59.8115 33.9328ZM22.6736 45.4399C2.13094 43.9726 13.1343 21.5441 24.5701 28.7054C28.2821 31.0302 28.6638 33.6744 29.061 39.1884C48.7115 39.1758 56.3123 41.3806 54.5856 19.1437C53.9336 10.7494 52.4187 7.31925 44.12 6.57108C37.6476 5.98746 27.7345 6.24588 21.0513 6.43074C13.2924 6.64464 8.5682 8.22808 7.29831 15.3526C6.64629 19.0121 6.52623 43.7219 6.89422 49.4836C7.59602 60.4593 20.0743 56.6749 20.9752 55.5135C22.3388 53.7568 22.6667 48.0764 22.6736 45.4399ZM23.2182 39.6268C23.6614 32.4084 19.2885 32.5497 17.6487 35.2879C16.4686 37.2584 18.1475 40.3982 23.2182 39.6268Z" fill="#3963A1"/>
</svg>
