<svg width="46" height="46" viewBox="0 0 46 46" fill="none" xmlns="http://www.w3.org/2000/svg">
<path d="M30.7637 25.2171C33.1411 25.2171 35.0667 27.1103 35.0667 29.446C35.0667 31.7804 33.1411 33.6735 30.7637 33.6735C28.3876 33.6735 26.4607 31.7804 26.4607 29.446C26.4607 27.1103 28.3876 25.2171 30.7637 25.2171ZM20.1555 27.6426C21.1968 27.6426 22.0421 28.4731 22.0421 29.4961C22.0421 30.5178 21.1968 31.3497 20.1555 31.3497H11.9277C10.8863 31.3497 10.041 30.5178 10.041 29.4961C10.041 28.4731 10.8863 27.6426 11.9277 27.6426H20.1555ZM14.344 11.4285C16.7214 11.4285 18.647 13.3217 18.647 15.6561C18.647 17.9918 16.7214 19.885 14.344 19.885C11.968 19.885 10.041 17.9918 10.041 15.6561C10.041 13.3217 11.968 11.4285 14.344 11.4285ZM33.1814 13.8039C34.2214 13.8039 35.0667 14.6343 35.0667 15.6561C35.0667 16.6791 34.2214 17.5096 33.1814 17.5096H24.9536C23.9122 17.5096 23.0669 16.6791 23.0669 15.6561C23.0669 14.6343 23.9122 13.8039 24.9536 13.8039H33.1814Z" fill="#EFF2F4"/>
</svg>
