<svg width="18" height="19" viewBox="0 0 18 19" fill="none" xmlns="http://www.w3.org/2000/svg">
<path d="M16.3541 8.32922H15.75V8.2981H9V11.2981H13.2386C12.6202 13.0445 10.9586 14.2981 9 14.2981C6.51487 14.2981 4.5 12.2832 4.5 9.7981C4.5 7.31297 6.51487 5.2981 9 5.2981C10.1471 5.2981 11.1907 5.73085 11.9854 6.43772L14.1067 4.31635C12.7672 3.06797 10.9755 2.2981 9 2.2981C4.85812 2.2981 1.5 5.65622 1.5 9.7981C1.5 13.94 4.85812 17.2981 9 17.2981C13.1419 17.2981 16.5 13.94 16.5 9.7981C16.5 9.29522 16.4482 8.80435 16.3541 8.32922Z" fill="#FFC107"/>
<path d="M2.36475 6.30722L4.82887 8.11435C5.49562 6.4636 7.11037 5.2981 9 5.2981C10.1471 5.2981 11.1907 5.73085 11.9854 6.43772L14.1067 4.31635C12.7672 3.06797 10.9755 2.2981 9 2.2981C6.11925 2.2981 3.621 3.92447 2.36475 6.30722Z" fill="#FF3D00"/>
<path d="M8.99999 17.2981C10.9372 17.2981 12.6975 16.5567 14.0284 15.3511L11.7071 13.3869C10.9288 13.9788 9.97779 14.2989 8.99999 14.2981C7.04924 14.2981 5.39287 13.0542 4.76887 11.3184L2.32312 13.2027C3.56437 15.6316 6.08512 17.2981 8.99999 17.2981Z" fill="#4CAF50"/>
<path d="M16.3541 8.32922H15.75V8.2981H9V11.2981H13.2386C12.9428 12.1293 12.41 12.8555 11.706 13.3872L11.7071 13.3865L14.0284 15.3507C13.8641 15.5 16.5 13.5481 16.5 9.7981C16.5 9.29522 16.4482 8.80435 16.3541 8.32922Z" fill="#1976D2"/>
</svg>
