<svg width="46" height="46" viewBox="0 0 46 46" fill="none" xmlns="http://www.w3.org/2000/svg">
<path d="M23.4512 10.1159C24.3974 10.1159 25.2542 10.6414 25.7274 11.4172C25.9575 11.7926 26.111 12.2556 26.0726 12.7436C26.047 13.119 26.1621 13.4944 26.3667 13.8447C27.0189 14.9083 28.4639 15.3087 29.5892 14.7081C30.8552 13.9824 32.4536 14.4203 33.1825 15.6591L34.0393 17.1356C34.781 18.3744 34.3717 19.9635 33.093 20.6767C32.006 21.3149 31.6224 22.7288 32.2746 23.8049C32.4792 24.1428 32.7094 24.4306 33.0674 24.6058C33.515 24.8435 33.8602 25.2189 34.1032 25.5943C34.5763 26.3701 34.538 27.321 34.0776 28.1594L33.1825 29.6609C32.7094 30.4618 31.827 30.9623 30.9191 30.9623C30.4715 30.9623 29.9728 30.8371 29.5636 30.5869C29.2311 30.3742 28.8475 30.2991 28.4383 30.2991C27.1723 30.2991 26.111 31.3376 26.0726 32.5764C26.0726 34.0154 24.8962 35.1415 23.4256 35.1415H21.6865C20.2031 35.1415 19.0267 34.0154 19.0267 32.5764C19.0011 31.3376 17.9397 30.2991 16.6738 30.2991C16.2518 30.2991 15.8681 30.3742 15.5484 30.5869C15.1392 30.8371 14.6277 30.9623 14.193 30.9623C13.2723 30.9623 12.3899 30.4618 11.9168 29.6609L11.0344 28.1594C10.5613 27.3461 10.5357 26.3701 11.0089 25.5943C11.2135 25.2189 11.5971 24.8435 12.0319 24.6058C12.3899 24.4306 12.6201 24.1428 12.8375 23.8049C13.4769 22.7288 13.0932 21.3149 12.0063 20.6767C10.7403 19.9635 10.3311 18.3744 11.06 17.1356L11.9168 15.6591C12.6585 14.4203 14.2441 13.9824 15.5229 14.7081C16.6354 15.3087 18.0804 14.9083 18.7326 13.8447C18.9372 13.4944 19.0522 13.119 19.0267 12.7436C19.0011 12.2556 19.1418 11.7926 19.3847 11.4172C19.8579 10.6414 20.7146 10.1409 21.6481 10.1159H23.4512ZM22.5688 19.1001C20.5612 19.1001 18.9372 20.6767 18.9372 22.6412C18.9372 24.6058 20.5612 26.1699 22.5688 26.1699C24.5765 26.1699 26.1621 24.6058 26.1621 22.6412C26.1621 20.6767 24.5765 19.1001 22.5688 19.1001Z" fill="#EFF2F4"/>
</svg>
