<svg width="46" height="46" viewBox="0 0 46 46" fill="none" xmlns="http://www.w3.org/2000/svg">
<path d="M17.4485 24.406C19.2128 24.406 20.6267 25.8337 20.6267 27.6106V31.8762C20.6267 33.6405 19.2128 35.0795 17.4485 35.0795H13.2192C11.4674 35.0795 10.0409 33.6405 10.0409 31.8762V27.6106C10.0409 25.8337 11.4674 24.406 13.2192 24.406H17.4485ZM31.8884 24.406C33.6402 24.406 35.0667 25.8337 35.0667 27.6106V31.8762C35.0667 33.6405 33.6402 35.0795 31.8884 35.0795H27.6591C25.8948 35.0795 24.4808 33.6405 24.4808 31.8762V27.6106C24.4808 25.8337 25.8948 24.406 27.6591 24.406H31.8884ZM17.4485 10.0542C19.2128 10.0542 20.6267 11.4932 20.6267 13.2587V17.5244C20.6267 19.3012 19.2128 20.7276 17.4485 20.7276H13.2192C11.4674 20.7276 10.0409 19.3012 10.0409 17.5244V13.2587C10.0409 11.4932 11.4674 10.0542 13.2192 10.0542H17.4485ZM31.8884 10.0542C33.6402 10.0542 35.0667 11.4932 35.0667 13.2587V17.5244C35.0667 19.3012 33.6402 20.7276 31.8884 20.7276H27.6591C25.8948 20.7276 24.4808 19.3012 24.4808 17.5244V13.2587C24.4808 11.4932 25.8948 10.0542 27.6591 10.0542H31.8884Z" fill="#EFF2F4"/>
</svg>
