<svg width="41" height="41" viewBox="0 0 41 41" fill="none" xmlns="http://www.w3.org/2000/svg">
<path d="M20.418 40.8203C9.42188 40.8203 0.496094 31.8945 0.496094 20.8984C0.496094 9.90234 9.42188 0.976562 20.418 0.976562C31.4141 0.976562 40.3398 9.90234 40.3398 20.8984C40.3398 31.8945 31.4141 40.8203 20.418 40.8203ZM20.418 37.5C29.5977 37.5 37.0195 30.0781 37.0195 20.8984C37.0195 11.7188 29.5977 4.29688 20.418 4.29688C11.2383 4.29688 3.81641 11.7188 3.81641 20.8984C3.81641 30.0781 11.2383 37.5 20.418 37.5ZM10.2031 23.0078C9.42188 23.0078 8.83594 22.4219 8.83594 21.6406C8.83594 20.8789 9.42188 20.293 10.2031 20.293H19.0508V8.47656C19.0508 7.71484 19.6367 7.12891 20.3984 7.12891C21.1602 7.12891 21.7656 7.71484 21.7656 8.47656V21.6406C21.7656 22.4219 21.1602 23.0078 20.3984 23.0078H10.2031Z" fill="#EEFFFF"/>
</svg>
