<svg width="44" height="45" viewBox="0 0 44 45" fill="none" xmlns="http://www.w3.org/2000/svg">
<path d="M18.0624 0V44.5023L31.9265 40.3433V4.15914L18.0624 0ZM33.6779 2.62442L33.6839 2.85161V5.75088H35.2461V2.62657L33.6779 2.62442ZM8.49421 2.62657V14.0762H10.2516V4.38399H16.305V2.62657H8.49421ZM33.6839 7.5083V9.07045H35.2461V7.5083H33.6839ZM33.6839 10.8279V33.8697H35.2461V10.8279H33.6839ZM6.56817 16.5617V20.0055H15.9411V24.4967H6.56817V27.9406L0.878712 22.2511L6.56817 16.5617ZM20.6985 19.9079C21.3456 19.9079 21.8702 20.957 21.8702 22.2511C21.8702 23.5453 21.3456 24.5944 20.6985 24.5944C20.0515 24.5944 19.5269 23.5453 19.5269 22.2511C19.5269 20.957 20.0515 19.9079 20.6985 19.9079ZM10.2516 30.4261H8.49421V40.997H10.2516V30.4261ZM33.6839 35.6271V36.994H35.2461V35.6271H33.6839ZM33.6839 38.7514V40.997H35.2461V38.7514H33.6839ZM0 43.2426V45H16.305V43.2426H0ZM28.3777 43.2426L22.5196 45H43.7403V43.2426H28.3777Z" fill="white"/>
</svg>
